<svg width="31" height="219" viewBox="0 0 31 219" fill="none" xmlns="http://www.w3.org/2000/svg">
<path d="M29.5642 0.754869C29.6996 0.514191 30.0045 0.428832 30.2451 0.564214C30.4858 0.699597 30.5712 1.00445 30.4358 1.24513L29.5642 0.754869ZM30 219L25.0504 216.028L30.0993 213.227L30 219ZM30.4358 1.24513C29.9706 2.07217 29.5105 2.90163 29.0556 3.73349L28.1782 3.25371C28.6351 2.41833 29.0971 1.58538 29.5642 0.754869L30.4358 1.24513ZM26.3859 8.75862C25.5158 10.4453 24.6669 12.1414 23.8392 13.8466L22.9396 13.41C23.7708 11.6974 24.6234 9.99403 25.4972 8.30017L26.3859 8.75862ZM21.4179 18.9959C20.6317 20.7227 19.8673 22.4585 19.1249 24.2031L18.2047 23.8115C18.9504 22.0593 19.7182 20.3159 20.5077 18.5815L21.4179 18.9959ZM16.9627 29.4659C16.2639 31.2293 15.5875 33.0012 14.9337 34.7814L13.995 34.4367C14.6518 32.6485 15.3312 30.8687 16.033 29.0975L16.9627 29.4659ZM13.0404 40.1467C12.4323 41.9426 11.8471 43.7466 11.285 45.5584L10.3299 45.2621C10.8946 43.4421 11.4824 41.63 12.0933 39.826L13.0404 40.1467ZM9.66947 51.0135C9.15475 52.8378 8.66338 54.6696 8.19564 56.5087L7.22649 56.2622C7.69637 54.4147 8.18998 52.5745 8.70704 50.7419L9.66947 51.0135ZM6.86539 62.0399C6.4464 63.8877 6.05117 65.7427 5.67998 67.6044L4.69928 67.4089C5.07219 65.5386 5.46924 63.6751 5.89015 61.8187L6.86539 62.0399ZM4.6409 73.1976C4.31945 75.064 4.02208 76.9369 3.74907 78.8162L2.75946 78.6724C3.03373 76.7845 3.33247 74.9029 3.65541 73.0278L4.6409 73.1976ZM3.00526 84.4569C2.7825 86.3367 2.58407 88.2225 2.41022 90.1141L1.41442 90.0225C1.58907 88.1222 1.78842 86.2277 2.01221 84.3392L3.00526 84.4569ZM1.96401 95.7864C1.84041 97.6745 1.74129 99.5681 1.6669 101.467L0.667668 101.428C0.742399 99.5202 0.84198 97.6179 0.966148 95.7211L1.96401 95.7864ZM1.51852 107.154C1.50618 108.102 1.5 109.05 1.5 110L0.499995 110C0.499995 109.046 0.50621 108.093 0.518608 107.141L1.51852 107.154ZM1.5 110C1.5 110.95 1.50618 111.898 1.51852 112.846L0.518608 112.859C0.50621 111.907 0.499995 110.954 0.499995 110L1.5 110ZM1.6669 118.533C1.74129 120.432 1.84041 122.326 1.96401 124.214L0.966147 124.279C0.841979 122.382 0.742398 120.48 0.667667 118.572L1.6669 118.533ZM2.41022 129.886C2.58407 131.778 2.7825 133.663 3.00526 135.543L2.01221 135.661C1.78842 133.772 1.58907 131.878 1.41442 129.977L2.41022 129.886ZM3.74907 141.184C4.02208 143.063 4.31945 144.936 4.6409 146.802L3.65541 146.972C3.33247 145.097 3.03373 143.216 2.75946 141.328L3.74907 141.184ZM5.67997 152.396C6.05117 154.257 6.4464 156.112 6.86539 157.96L5.89014 158.181C5.46923 156.325 5.07218 154.461 4.69928 152.591L5.67997 152.396ZM8.19563 163.491C8.66337 165.33 9.15474 167.162 9.66946 168.986L8.70703 169.258C8.18997 167.425 7.69636 165.585 7.22649 163.738L8.19563 163.491ZM11.285 174.442C11.8471 176.253 12.4323 178.057 13.0404 179.853L12.0933 180.174C11.4824 178.37 10.8945 176.558 10.3299 174.738L11.285 174.442ZM14.9337 185.219C15.5875 186.999 16.2639 188.771 16.9627 190.534L16.033 190.902C15.3312 189.131 14.6518 187.351 13.995 185.563L14.9337 185.219ZM19.1249 195.797C19.8673 197.541 20.6317 199.277 21.4178 201.004L20.5077 201.418C19.7182 199.684 18.9504 197.941 18.2047 196.188L19.1249 195.797ZM23.8392 206.153C24.6668 207.859 25.5158 209.555 26.3859 211.241L25.4972 211.7C24.6234 210.006 23.7708 208.303 22.9396 206.59L23.8392 206.153ZM29.5642 0.754869C29.6996 0.514191 30.0045 0.428832 30.2451 0.564214C30.4858 0.699597 30.5712 1.00445 30.4358 1.24513L29.5642 0.754869ZM30 219L25.0504 216.028L30.0993 213.227L30 219ZM30.4358 1.24513C29.9706 2.07217 29.5105 2.90163 29.0556 3.73349L28.1782 3.25371C28.6351 2.41833 29.0971 1.58538 29.5642 0.754869L30.4358 1.24513ZM26.3859 8.75862C25.5158 10.4453 24.6669 12.1414 23.8392 13.8466L22.9396 13.41C23.7708 11.6974 24.6234 9.99403 25.4972 8.30017L26.3859 8.75862ZM21.4179 18.9959C20.6317 20.7227 19.8673 22.4585 19.1249 24.2031L18.2047 23.8115C18.9504 22.0593 19.7182 20.3159 20.5077 18.5815L21.4179 18.9959ZM16.9627 29.4659C16.2639 31.2293 15.5875 33.0012 14.9337 34.7814L13.995 34.4367C14.6518 32.6485 15.3312 30.8687 16.033 29.0975L16.9627 29.4659ZM13.0404 40.1467C12.4323 41.9426 11.8471 43.7466 11.285 45.5584L10.3299 45.2621C10.8946 43.4421 11.4824 41.63 12.0933 39.826L13.0404 40.1467ZM9.66947 51.0135C9.15475 52.8378 8.66338 54.6696 8.19564 56.5087L7.22649 56.2622C7.69637 54.4147 8.18998 52.5745 8.70704 50.7419L9.66947 51.0135ZM6.86539 62.0399C6.4464 63.8877 6.05117 65.7427 5.67998 67.6044L4.69928 67.4089C5.07219 65.5386 5.46924 63.6751 5.89015 61.8187L6.86539 62.0399ZM4.6409 73.1976C4.31945 75.064 4.02208 76.9369 3.74907 78.8162L2.75946 78.6724C3.03373 76.7845 3.33247 74.9029 3.65541 73.0278L4.6409 73.1976ZM3.00526 84.4569C2.7825 86.3367 2.58407 88.2225 2.41022 90.1141L1.41442 90.0225C1.58907 88.1222 1.78842 86.2277 2.01221 84.3392L3.00526 84.4569ZM1.96401 95.7864C1.84041 97.6745 1.74129 99.5681 1.6669 101.467L0.667668 101.428C0.742399 99.5202 0.84198 97.6179 0.966148 95.7211L1.96401 95.7864ZM1.51852 107.154C1.50618 108.102 1.5 109.05 1.5 110L0.499995 110C0.499995 109.046 0.50621 108.093 0.518608 107.141L1.51852 107.154ZM1.5 110C1.5 110.95 1.50618 111.898 1.51852 112.846L0.518608 112.859C0.50621 111.907 0.499995 110.954 0.499995 110L1.5 110ZM1.6669 118.533C1.74129 120.432 1.84041 122.326 1.96401 124.214L0.966147 124.279C0.841979 122.382 0.742398 120.48 0.667667 118.572L1.6669 118.533ZM2.41022 129.886C2.58407 131.778 2.7825 133.663 3.00526 135.543L2.01221 135.661C1.78842 133.772 1.58907 131.878 1.41442 129.977L2.41022 129.886ZM3.74907 141.184C4.02208 143.063 4.31945 144.936 4.6409 146.802L3.65541 146.972C3.33247 145.097 3.03373 143.216 2.75946 141.328L3.74907 141.184ZM5.67997 152.396C6.05117 154.257 6.4464 156.112 6.86539 157.96L5.89014 158.181C5.46923 156.325 5.07218 154.461 4.69928 152.591L5.67997 152.396ZM8.19563 163.491C8.66337 165.33 9.15474 167.162 9.66946 168.986L8.70703 169.258C8.18997 167.425 7.69636 165.585 7.22649 163.738L8.19563 163.491ZM11.285 174.442C11.8471 176.253 12.4323 178.057 13.0404 179.853L12.0933 180.174C11.4824 178.37 10.8945 176.558 10.3299 174.738L11.285 174.442ZM14.9337 185.219C15.5875 186.999 16.2639 188.771 16.9627 190.534L16.033 190.902C15.3312 189.131 14.6518 187.351 13.995 185.563L14.9337 185.219ZM19.1249 195.797C19.8673 197.541 20.6317 199.277 21.4178 201.004L20.5077 201.418C19.7182 199.684 18.9504 197.941 18.2047 196.188L19.1249 195.797ZM23.8392 206.153C24.6668 207.859 25.5158 209.555 26.3859 211.241L25.4972 211.7C24.6234 210.006 23.7708 208.303 22.9396 206.59L23.8392 206.153Z" fill="#27BE69"/>
</svg>
