<svg width="30" height="211" viewBox="0 0 30 211" fill="none" xmlns="http://www.w3.org/2000/svg">
<path d="M1.43556 0.754439C1.29994 0.513894 0.994997 0.428834 0.754452 0.564453C0.513906 0.700071 0.428846 1.00501 0.564465 1.24556L1.43556 0.754439ZM1 211L5.95055 208.029L0.902529 205.227L1 211ZM0.564465 1.24556C1.06333 2.13039 1.55607 3.0181 2.04263 3.90866L2.92019 3.4292C2.43149 2.53473 1.9366 1.64313 1.43556 0.754439L0.564465 1.24556ZM4.89114 9.29281C5.81702 11.1014 6.7177 12.9211 7.59283 14.7517L8.49504 14.3204C7.61598 12.4816 6.71127 10.6537 5.78128 8.83712L4.89114 9.29281ZM10.1441 20.2822C10.9694 22.138 11.7687 24.0044 12.5415 25.881L13.4662 25.5002C12.6898 23.615 11.8869 21.7401 11.0578 19.8759L10.1441 20.2822ZM14.7818 31.5446C15.5019 33.4428 16.1953 35.3509 16.8615 37.2688L17.8061 36.9406C17.1368 35.0139 16.4402 33.0968 15.7167 31.1898L14.7818 31.5446ZM18.7777 43.0496C19.3887 44.9848 19.9721 46.9293 20.5277 48.8829L21.4896 48.6093C20.9314 46.6465 20.3452 44.6928 19.7313 42.7485L18.7777 43.0496ZM22.109 54.7642C22.6072 56.7304 23.0774 58.7052 23.519 60.6884L24.4951 60.471C24.0513 58.4783 23.5789 56.4941 23.0783 54.5186L22.109 54.7642ZM24.7561 66.6511C25.1389 68.642 25.4932 70.6409 25.8185 72.6475L26.8056 72.4874C26.4787 70.4712 26.1228 68.4627 25.7381 66.4622L24.7561 66.6511ZM26.705 78.6728C26.9706 80.6817 27.2072 82.6979 27.4145 84.7211L28.4093 84.6191C28.201 82.5862 27.9632 80.5603 27.6964 78.5417L26.705 78.6728ZM27.9465 90.787C28.094 92.807 28.2122 94.8336 28.3009 96.8664L29.3 96.8228C29.2108 94.7802 29.092 92.7439 28.9439 90.7143L27.9465 90.787ZM28.4779 102.954C28.4926 103.968 28.5 104.983 28.5 106L29.5 106C29.5 104.978 29.4926 103.958 29.4778 102.94L28.4779 102.954ZM28.5 106C28.5 107.017 28.4926 108.032 28.4779 109.046L29.4778 109.06C29.4926 108.042 29.5 107.022 29.5 106L28.5 106ZM28.3009 115.134C28.2122 117.166 28.094 119.193 27.9465 121.213L28.9439 121.286C29.092 119.256 29.2108 117.22 29.3 115.177L28.3009 115.134ZM27.4145 127.279C27.2072 129.302 26.9706 131.318 26.705 133.327L27.6964 133.458C27.9632 131.44 28.201 129.414 28.4093 127.381L27.4145 127.279ZM25.8185 139.353C25.4932 141.359 25.1389 143.358 24.7561 145.349L25.7381 145.538C26.1228 143.537 26.4787 141.529 26.8056 139.513L25.8185 139.353ZM23.519 151.312C23.0773 153.295 22.6072 155.27 22.109 157.236L23.0783 157.481C23.5789 155.506 24.0513 153.522 24.4951 151.529L23.519 151.312ZM20.5277 163.117C19.9721 165.071 19.3887 167.015 18.7777 168.95L19.7313 169.251C20.3452 167.307 20.9314 165.354 21.4896 163.391L20.5277 163.117ZM16.8615 174.731C16.1953 176.649 15.5019 178.557 14.7818 180.455L15.7167 180.81C16.4402 178.903 17.1368 176.986 17.8061 175.059L16.8615 174.731ZM12.5415 186.119C11.7687 187.996 10.9694 189.862 10.1441 191.718L11.0578 192.124C11.8869 190.26 12.6898 188.385 13.4662 186.5L12.5415 186.119ZM7.59283 197.248C6.7177 199.079 5.81702 200.899 4.89114 202.707L5.78128 203.163C6.71127 201.346 7.61598 199.518 8.49503 197.68L7.59283 197.248ZM1.43556 0.754439C1.29994 0.513894 0.994997 0.428834 0.754452 0.564453C0.513906 0.700071 0.428846 1.00501 0.564465 1.24556L1.43556 0.754439ZM1 211L5.95055 208.029L0.902529 205.227L1 211ZM0.564465 1.24556C1.06333 2.13039 1.55607 3.0181 2.04263 3.90866L2.92019 3.4292C2.43149 2.53473 1.9366 1.64313 1.43556 0.754439L0.564465 1.24556ZM4.89114 9.29281C5.81702 11.1014 6.7177 12.9211 7.59283 14.7517L8.49504 14.3204C7.61598 12.4816 6.71127 10.6537 5.78128 8.83712L4.89114 9.29281ZM10.1441 20.2822C10.9694 22.138 11.7687 24.0044 12.5415 25.881L13.4662 25.5002C12.6898 23.615 11.8869 21.7401 11.0578 19.8759L10.1441 20.2822ZM14.7818 31.5446C15.5019 33.4428 16.1953 35.3509 16.8615 37.2688L17.8061 36.9406C17.1368 35.0139 16.4402 33.0968 15.7167 31.1898L14.7818 31.5446ZM18.7777 43.0496C19.3887 44.9848 19.9721 46.9293 20.5277 48.8829L21.4896 48.6093C20.9314 46.6465 20.3452 44.6928 19.7313 42.7485L18.7777 43.0496ZM22.109 54.7642C22.6072 56.7304 23.0774 58.7052 23.519 60.6884L24.4951 60.471C24.0513 58.4783 23.5789 56.4941 23.0783 54.5186L22.109 54.7642ZM24.7561 66.6511C25.1389 68.642 25.4932 70.6409 25.8185 72.6475L26.8056 72.4874C26.4787 70.4712 26.1228 68.4627 25.7381 66.4622L24.7561 66.6511ZM26.705 78.6728C26.9706 80.6817 27.2072 82.6979 27.4145 84.7211L28.4093 84.6191C28.201 82.5862 27.9632 80.5603 27.6964 78.5417L26.705 78.6728ZM27.9465 90.787C28.094 92.807 28.2122 94.8336 28.3009 96.8664L29.3 96.8228C29.2108 94.7802 29.092 92.7439 28.9439 90.7143L27.9465 90.787ZM28.4779 102.954C28.4926 103.968 28.5 104.983 28.5 106L29.5 106C29.5 104.978 29.4926 103.958 29.4778 102.94L28.4779 102.954ZM28.5 106C28.5 107.017 28.4926 108.032 28.4779 109.046L29.4778 109.06C29.4926 108.042 29.5 107.022 29.5 106L28.5 106ZM28.3009 115.134C28.2122 117.166 28.094 119.193 27.9465 121.213L28.9439 121.286C29.092 119.256 29.2108 117.22 29.3 115.177L28.3009 115.134ZM27.4145 127.279C27.2072 129.302 26.9706 131.318 26.705 133.327L27.6964 133.458C27.9632 131.44 28.201 129.414 28.4093 127.381L27.4145 127.279ZM25.8185 139.353C25.4932 141.359 25.1389 143.358 24.7561 145.349L25.7381 145.538C26.1228 143.537 26.4787 141.529 26.8056 139.513L25.8185 139.353ZM23.519 151.312C23.0773 153.295 22.6072 155.27 22.109 157.236L23.0783 157.481C23.5789 155.506 24.0513 153.522 24.4951 151.529L23.519 151.312ZM20.5277 163.117C19.9721 165.071 19.3887 167.015 18.7777 168.95L19.7313 169.251C20.3452 167.307 20.9314 165.354 21.4896 163.391L20.5277 163.117ZM16.8615 174.731C16.1953 176.649 15.5019 178.557 14.7818 180.455L15.7167 180.81C16.4402 178.903 17.1368 176.986 17.8061 175.059L16.8615 174.731ZM12.5415 186.119C11.7687 187.996 10.9694 189.862 10.1441 191.718L11.0578 192.124C11.8869 190.26 12.6898 188.385 13.4662 186.5L12.5415 186.119ZM7.59283 197.248C6.7177 199.079 5.81702 200.899 4.89114 202.707L5.78128 203.163C6.71127 201.346 7.61598 199.518 8.49503 197.68L7.59283 197.248Z" fill="#27BE69"/>
</svg>
